<svg width="181" height="180" viewBox="0 0 181 180" fill="none" xmlns="http://www.w3.org/2000/svg">
<circle cx="90.5" cy="90" r="80" fill="url(#paint0_linear_2602_6312)"/>
<path d="M105.672 55L50.5417 71C50.5417 71 49.5 96 50.5417 133.765C51.5834 171.529 151.963 145.262 134 108C116.037 70.7379 105.672 55 105.672 55Z" fill="url(#paint1_linear_2602_6312)"/>
<path d="M115.5 51L37.9848 76.5265C37.9848 76.5265 37.5149 71.9734 38 77C38.4852 82.0265 46.4997 85 56.9848 84.5265C62.9995 84.2549 81.9848 81.5265 100.985 74.0265C116.185 68.0265 121.485 62.0265 122.5 56.5C123.515 50.9735 115.5 51 115.5 51Z" fill="#9CA3AF"/>
<path d="M37.8137 77.1102C36.6494 72.8814 43.9417 66.3248 52.3983 63.997C58.7406 62.2507 52.8935 55.5844 75.4393 48.5554C97.9852 41.5264 103.137 50.0268 103.137 50.0268C103.137 50.0268 120.632 47.4841 122.378 53.8265C124.125 60.1689 108.958 71.1679 83.5886 78.1531C58.2192 85.1382 39.5598 83.452 37.8137 77.1102Z" fill="#D1D5DB"/>
<path d="M70.7824 31.6418C91.0779 26.0537 100.809 41.5697 103.137 50.0261C103.137 50.0261 95.2625 54.4686 78.3496 59.1254C61.4366 63.7821 52.3981 63.9964 52.3981 63.9964C50.0697 55.5399 50.4868 37.2299 70.7824 31.6418Z" fill="#F3F4F6"/>
<circle cx="56.4852" cy="59.5264" r="2" fill="#D1D5DB"/>
<circle cx="63.4851" cy="58.5264" r="2" fill="#D1D5DB"/>
<circle cx="70.4851" cy="56.5264" r="2" fill="#D1D5DB"/>
<path d="M94.5 52C90.1 38.8 81.3333 32.8333 77.5 32C87.5 33.2 95 45.5 97.5 51C96.4396 51.5594 95.7807 51.7826 94.5 52Z" fill="#D1D5DB"/>
<defs>
<linearGradient id="paint0_linear_2602_6312" x1="90.5" y1="172.5" x2="88.5" y2="-43.5" gradientUnits="userSpaceOnUse">
<stop stop-color="#D1D5DB"/>
<stop offset="1" stop-color="#D1D5DB" stop-opacity="0"/>
</linearGradient>
<linearGradient id="paint1_linear_2602_6312" x1="68.3448" y1="51.0656" x2="90.067" y2="132.389" gradientUnits="userSpaceOnUse">
<stop stop-color="#D1D5DB"/>
<stop offset="1" stop-color="#D1D5DB" stop-opacity="0"/>
</linearGradient>
</defs>
</svg>
